<?xml version="1.0" encoding="utf-8" standalone="no"?>
<!DOCTYPE svg PUBLIC "-//W3C//DTD SVG 1.1//EN"
  "http://www.w3.org/Graphics/SVG/1.1/DTD/svg11.dtd">
<svg xmlns:xlink="http://www.w3.org/1999/xlink" width="173.67217pt" height="142.671827pt" viewBox="0 0 173.67217 142.671827" xmlns="http://www.w3.org/2000/svg" version="1.1">
 <metadata>
  <rdf:RDF xmlns:dc="http://purl.org/dc/elements/1.1/" xmlns:cc="http://creativecommons.org/ns#" xmlns:rdf="http://www.w3.org/1999/02/22-rdf-syntax-ns#">
   <cc:Work>
    <dc:type rdf:resource="http://purl.org/dc/dcmitype/StillImage"/>
    <dc:date>2023-10-25T17:40:28.354099</dc:date>
    <dc:format>image/svg+xml</dc:format>
    <dc:creator>
     <cc:Agent>
      <dc:title>Matplotlib v3.7.3, https://matplotlib.org/</dc:title>
     </cc:Agent>
    </dc:creator>
   </cc:Work>
  </rdf:RDF>
 </metadata>
 <defs>
  <style type="text/css">*{stroke-linejoin: round; stroke-linecap: butt}</style>
 </defs>
 <g id="figure_1">
  <g id="patch_1">
   <path d="M 0 142.671827 
L 173.67217 142.671827 
L 173.67217 0 
L 0 0 
z
" style="fill: #ffffff"/>
  </g>
  <g id="axes_1">
   <g id="patch_2">
    <path d="M 46.965625 118.793702 
L 158.565625 118.793702 
L 158.565625 7.913702 
L 46.965625 7.913702 
z
" style="fill: #ffffff"/>
   </g>
   <g id="matplotlib.axis_1">
    <g id="xtick_1">
     <g id="line2d_1">
      <defs>
       <path id="m3178b22c53" d="M 0 0 
L 0 3.5 
" style="stroke: #000000; stroke-width: 0.8"/>
      </defs>
      <g>
       <use xlink:href="#m3178b22c53" x="52.038352" y="118.793702" style="stroke: #000000; stroke-width: 0.8"/>
      </g>
     </g>
     <g id="text_1">
      <text style="font: 10px 'DejaVu Sans', 'Bitstream Vera Sans', 'Computer Modern Sans Serif', 'Lucida Grande', 'Verdana', 'Geneva', 'Lucid', 'Arial', 'Helvetica', 'Avant Garde', sans-serif; text-anchor: middle" x="52.038352" y="133.39214" transform="rotate(-0 52.038352 133.39214)">800</text>
     </g>
    </g>
    <g id="xtick_2">
     <g id="line2d_2">
      <g>
       <use xlink:href="#m3178b22c53" x="102.892761" y="118.793702" style="stroke: #000000; stroke-width: 0.8"/>
      </g>
     </g>
     <g id="text_2">
      <text style="font: 10px 'DejaVu Sans', 'Bitstream Vera Sans', 'Computer Modern Sans Serif', 'Lucida Grande', 'Verdana', 'Geneva', 'Lucid', 'Arial', 'Helvetica', 'Avant Garde', sans-serif; text-anchor: middle" x="102.892761" y="133.39214" transform="rotate(-0 102.892761 133.39214)">1000</text>
     </g>
    </g>
    <g id="xtick_3">
     <g id="line2d_3">
      <g>
       <use xlink:href="#m3178b22c53" x="153.74717" y="118.793702" style="stroke: #000000; stroke-width: 0.8"/>
      </g>
     </g>
     <g id="text_3">
      <text style="font: 10px 'DejaVu Sans', 'Bitstream Vera Sans', 'Computer Modern Sans Serif', 'Lucida Grande', 'Verdana', 'Geneva', 'Lucid', 'Arial', 'Helvetica', 'Avant Garde', sans-serif; text-anchor: middle" x="153.74717" y="133.39214" transform="rotate(-0 153.74717 133.39214)">1200</text>
     </g>
    </g>
   </g>
   <g id="matplotlib.axis_2">
    <g id="ytick_1">
     <g id="line2d_4">
      <defs>
       <path id="m8c6a7c250f" d="M 0 0 
L -3.5 0 
" style="stroke: #000000; stroke-width: 0.8"/>
      </defs>
      <g>
       <use xlink:href="#m8c6a7c250f" x="46.965625" y="105.537882" style="stroke: #000000; stroke-width: 0.8"/>
      </g>
     </g>
     <g id="text_4">
      <text style="font: 10px 'DejaVu Sans', 'Bitstream Vera Sans', 'Computer Modern Sans Serif', 'Lucida Grande', 'Verdana', 'Geneva', 'Lucid', 'Arial', 'Helvetica', 'Avant Garde', sans-serif; text-anchor: end" x="39.965625" y="109.337101" transform="rotate(-0 39.965625 109.337101)">25</text>
     </g>
    </g>
    <g id="ytick_2">
     <g id="line2d_5">
      <g>
       <use xlink:href="#m8c6a7c250f" x="46.965625" y="81.903216" style="stroke: #000000; stroke-width: 0.8"/>
      </g>
     </g>
     <g id="text_5">
      <text style="font: 10px 'DejaVu Sans', 'Bitstream Vera Sans', 'Computer Modern Sans Serif', 'Lucida Grande', 'Verdana', 'Geneva', 'Lucid', 'Arial', 'Helvetica', 'Avant Garde', sans-serif; text-anchor: end" x="39.965625" y="85.702435" transform="rotate(-0 39.965625 85.702435)">50</text>
     </g>
    </g>
    <g id="ytick_3">
     <g id="line2d_6">
      <g>
       <use xlink:href="#m8c6a7c250f" x="46.965625" y="58.268551" style="stroke: #000000; stroke-width: 0.8"/>
      </g>
     </g>
     <g id="text_6">
      <text style="font: 10px 'DejaVu Sans', 'Bitstream Vera Sans', 'Computer Modern Sans Serif', 'Lucida Grande', 'Verdana', 'Geneva', 'Lucid', 'Arial', 'Helvetica', 'Avant Garde', sans-serif; text-anchor: end" x="39.965625" y="62.067769" transform="rotate(-0 39.965625 62.067769)">75</text>
     </g>
    </g>
    <g id="ytick_4">
     <g id="line2d_7">
      <g>
       <use xlink:href="#m8c6a7c250f" x="46.965625" y="34.633885" style="stroke: #000000; stroke-width: 0.8"/>
      </g>
     </g>
     <g id="text_7">
      <text style="font: 10px 'DejaVu Sans', 'Bitstream Vera Sans', 'Computer Modern Sans Serif', 'Lucida Grande', 'Verdana', 'Geneva', 'Lucid', 'Arial', 'Helvetica', 'Avant Garde', sans-serif; text-anchor: end" x="39.965625" y="38.433103" transform="rotate(-0 39.965625 38.433103)">100</text>
     </g>
    </g>
    <g id="ytick_5">
     <g id="line2d_8">
      <g>
       <use xlink:href="#m8c6a7c250f" x="46.965625" y="10.999219" style="stroke: #000000; stroke-width: 0.8"/>
      </g>
     </g>
     <g id="text_8">
      <text style="font: 10px 'DejaVu Sans', 'Bitstream Vera Sans', 'Computer Modern Sans Serif', 'Lucida Grande', 'Verdana', 'Geneva', 'Lucid', 'Arial', 'Helvetica', 'Avant Garde', sans-serif; text-anchor: end" x="39.965625" y="14.798438" transform="rotate(-0 39.965625 14.798438)">125</text>
     </g>
    </g>
    <g id="text_9">
     <text style="font: 10px 'DejaVu Sans', 'Bitstream Vera Sans', 'Computer Modern Sans Serif', 'Lucida Grande', 'Verdana', 'Geneva', 'Lucid', 'Arial', 'Helvetica', 'Avant Garde', sans-serif; text-anchor: middle" x="14.798438" y="63.353702" transform="rotate(-90 14.798438 63.353702)">P,Q</text>
    </g>
   </g>
   <g id="line2d_9">
    <path d="M 52.038352 65.116797 
L 53.563985 42.204674 
L 53.818257 74.068391 
L 56.106705 39.700213 
L 56.360977 71.563926 
L 58.649425 37.195745 
L 58.903697 69.059462 
L 61.192146 34.691284 
L 61.446418 66.555001 
L 63.734866 32.186815 
L 63.989138 64.050533 
L 66.277587 29.682354 
L 66.531859 61.546072 
L 68.820307 27.177893 
L 69.074579 59.041603 
L 71.108756 28.49211 
L 71.363028 56.537142 
L 73.651476 22.168964 
L 73.905748 54.032682 
L 76.194196 19.664496 
L 76.448468 74.851441 
L 78.736917 40.483263 
L 78.991189 72.346976 
L 81.279637 37.978794 
L 81.533909 69.842515 
L 83.822358 35.474333 
L 84.07663 67.338051 
L 86.365078 32.969865 
L 86.61935 64.833582 
L 88.907799 30.465404 
L 89.162071 62.329121 
L 91.450519 27.960943 
L 91.704791 59.824653 
L 93.993239 25.456475 
L 94.247512 57.320192 
L 96.53596 22.952014 
L 96.790232 54.815731 
L 98.315864 31.903608 
L 98.570136 24.266238 
L 98.824408 20.447546 
L 99.07868 52.311263 
L 101.112857 21.76177 
L 101.367129 82.869704 
L 103.655577 41.885648 
L 103.909849 79.883133 
L 106.198298 38.899073 
L 106.45257 76.896559 
L 108.741018 35.912507 
L 108.99529 73.909985 
L 111.283738 32.925932 
L 111.538011 70.923411 
L 113.826459 29.939358 
L 114.080731 67.936837 
L 116.369179 26.952784 
L 116.623451 64.950263 
L 118.9119 23.96621 
L 119.166172 61.963689 
L 121.45462 20.979636 
L 121.708892 58.977114 
L 123.997341 17.993062 
L 124.251613 55.99054 
L 126.540061 15.006488 
L 126.794333 80.816918 
L 129.082782 39.832862 
L 129.337054 77.830344 
L 131.625502 36.846288 
L 131.879774 74.843774 
L 134.168222 33.859714 
L 134.422494 71.8572 
L 136.710943 30.87314 
L 136.965215 68.870625 
L 139.253663 27.886573 
L 139.507935 65.884051 
L 141.796384 24.899999 
L 142.050656 62.897477 
L 144.339104 21.913424 
L 144.593376 59.910903 
L 146.881825 18.92685 
L 147.136097 56.924329 
L 149.424545 15.940276 
L 149.678817 53.937755 
L 151.967265 12.953702 
L 152.221538 78.764133 
L 153.492898 55.995214 
L 153.492898 55.995214 
" clip-path="url(#p3d457c0693)" style="fill: none; stroke: #1f77b4; stroke-width: 1.5; stroke-linecap: square"/>
   </g>
   <g id="line2d_10">
    <path d="M 52.038352 107.841983 
L 53.563985 100.212246 
L 53.818257 110.822864 
L 56.106705 99.37826 
L 56.360977 109.988878 
L 58.649425 98.544274 
L 58.903697 109.15489 
L 61.192146 97.710288 
L 61.446418 108.320904 
L 63.734866 96.876302 
L 63.989138 107.486918 
L 66.277587 96.042312 
L 66.531859 106.65293 
L 68.820307 95.208326 
L 69.074579 105.818944 
L 71.108756 95.645962 
L 71.363028 104.984958 
L 73.651476 93.540354 
L 73.905748 104.150972 
L 76.194196 92.706368 
L 76.448468 111.083621 
L 78.736917 99.639016 
L 78.991189 110.249633 
L 81.279637 98.805028 
L 81.533909 109.415647 
L 83.822358 97.971042 
L 84.07663 108.581661 
L 86.365078 97.137056 
L 86.61935 107.747673 
L 88.907799 96.30307 
L 89.162071 106.913687 
L 91.450519 95.469084 
L 91.704791 106.079701 
L 93.993239 94.635098 
L 94.247512 105.245715 
L 96.53596 93.801108 
L 96.790232 104.411727 
L 98.315864 96.781992 
L 98.570136 94.238744 
L 98.824408 92.967122 
L 99.07868 103.577741 
L 101.112857 93.404758 
L 101.367129 113.753702 
L 103.655577 100.106011 
L 103.909849 112.759173 
L 106.198298 99.111483 
L 106.45257 111.764643 
L 108.741018 98.116952 
L 108.99529 110.770114 
L 111.283738 97.122425 
L 111.538011 109.775585 
L 113.826459 96.127895 
L 114.080731 108.781056 
L 116.369179 95.133368 
L 116.623451 107.786528 
L 118.9119 94.138837 
L 119.166172 106.791999 
L 121.45462 93.144307 
L 121.708892 105.79747 
L 123.997341 92.14978 
L 124.251613 104.802941 
L 126.540061 91.155249 
L 126.794333 113.070123 
L 129.082782 99.422434 
L 129.337054 112.075594 
L 131.625502 98.427904 
L 131.879774 111.081065 
L 134.168222 97.433377 
L 134.422494 110.086537 
L 136.710943 96.438846 
L 136.965215 109.092008 
L 139.253663 95.444319 
L 139.507935 108.097479 
L 141.796384 94.449789 
L 142.050656 107.10295 
L 144.339104 93.455258 
L 144.593376 106.108422 
L 146.881825 92.460731 
L 147.136097 105.113891 
L 149.424545 91.466201 
L 149.678817 104.119362 
L 151.967265 90.471674 
L 152.221538 112.386546 
L 153.492898 104.804496 
L 153.492898 104.804496 
" clip-path="url(#p3d457c0693)" style="fill: none; stroke: #ff7f0e; stroke-width: 1.5; stroke-linecap: square"/>
   </g>
   <g id="patch_3">
    <path d="M 46.965625 118.793702 
L 46.965625 7.913702 
" style="fill: none; stroke: #000000; stroke-width: 0.8; stroke-linejoin: miter; stroke-linecap: square"/>
   </g>
   <g id="patch_4">
    <path d="M 158.565625 118.793702 
L 158.565625 7.913702 
" style="fill: none; stroke: #000000; stroke-width: 0.8; stroke-linejoin: miter; stroke-linecap: square"/>
   </g>
   <g id="patch_5">
    <path d="M 46.965625 118.793702 
L 158.565625 118.793702 
" style="fill: none; stroke: #000000; stroke-width: 0.8; stroke-linejoin: miter; stroke-linecap: square"/>
   </g>
   <g id="patch_6">
    <path d="M 46.965625 7.913702 
L 158.565625 7.913702 
" style="fill: none; stroke: #000000; stroke-width: 0.8; stroke-linejoin: miter; stroke-linecap: square"/>
   </g>
   <g id="legend_1">
    <g id="patch_7">
     <path d="M 53.965625 45.269952 
L 104.965625 45.269952 
Q 106.965625 45.269952 106.965625 43.269952 
L 106.965625 14.913702 
Q 106.965625 12.913702 104.965625 12.913702 
L 53.965625 12.913702 
Q 51.965625 12.913702 51.965625 14.913702 
L 51.965625 43.269952 
Q 51.965625 45.269952 53.965625 45.269952 
z
" style="fill: #ffffff; opacity: 0.8; stroke: #cccccc; stroke-linejoin: miter"/>
    </g>
    <g id="line2d_11">
     <path d="M 55.965625 21.01214 
L 65.965625 21.01214 
L 75.965625 21.01214 
" style="fill: none; stroke: #1f77b4; stroke-width: 1.5; stroke-linecap: square"/>
    </g>
    <g id="text_10">
     <!-- $Pd_5$ -->
     <g transform="translate(83.965625 24.51214)">
      <text>
       <tspan style="font: oblique 10px 'DejaVu Sans'" x="0 6.030273" y="-0.40625">Pd</tspan>
       <tspan style="font: 7px 'DejaVu Sans'" x="12.37793" y="1.234375">5</tspan>
      </text>
     </g>
    </g>
    <g id="line2d_12">
     <path d="M 55.965625 35.690265 
L 65.965625 35.690265 
L 75.965625 35.690265 
" style="fill: none; stroke: #ff7f0e; stroke-width: 1.5; stroke-linecap: square"/>
    </g>
    <g id="text_11">
     <!-- $Qd_5$ -->
     <g transform="translate(83.965625 39.190265)">
      <text>
       <tspan style="font: oblique 10px 'DejaVu Sans'" x="0 7.871094" y="-0.40625">Qd</tspan>
       <tspan style="font: 7px 'DejaVu Sans'" x="14.21875" y="1.234375">5</tspan>
      </text>
     </g>
    </g>
   </g>
  </g>
 </g>
 <defs>
  <clipPath id="p3d457c0693">
   <rect x="46.965625" y="7.913702" width="111.6" height="110.88"/>
  </clipPath>
 </defs>
</svg>
