<?xml version="1.0" encoding="utf-8" standalone="no"?>
<!DOCTYPE svg PUBLIC "-//W3C//DTD SVG 1.1//EN"
  "http://www.w3.org/Graphics/SVG/1.1/DTD/svg11.dtd">
<svg xmlns:xlink="http://www.w3.org/1999/xlink" width="600.833872pt" height="198.093048pt" viewBox="0 0 600.833872 198.093048" xmlns="http://www.w3.org/2000/svg" version="1.1">
 <metadata>
  <rdf:RDF xmlns:dc="http://purl.org/dc/elements/1.1/" xmlns:cc="http://creativecommons.org/ns#" xmlns:rdf="http://www.w3.org/1999/02/22-rdf-syntax-ns#">
   <cc:Work>
    <dc:type rdf:resource="http://purl.org/dc/dcmitype/StillImage"/>
    <dc:date>2024-01-13T22:49:23.677363</dc:date>
    <dc:format>image/svg+xml</dc:format>
    <dc:creator>
     <cc:Agent>
      <dc:title>Matplotlib v3.8.2, https://matplotlib.org/</dc:title>
     </cc:Agent>
    </dc:creator>
   </cc:Work>
  </rdf:RDF>
 </metadata>
 <defs>
  <style type="text/css">*{stroke-linejoin: round; stroke-linecap: butt}</style>
 </defs>
 <g id="figure_1">
  <g id="patch_1">
   <path d="M 0 198.093048 
L 600.833872 198.093048 
L 600.833872 0 
L 0 0 
z
" style="fill: #ffffff"/>
  </g>
  <g id="axes_1">
   <g id="patch_2">
    <path d="M 33.710938 174.214923 
L 287.347301 174.214923 
L 287.347301 7.894923 
L 33.710938 7.894923 
z
" style="fill: #ffffff"/>
   </g>
   <g id="matplotlib.axis_1">
    <g id="xtick_1">
     <g id="line2d_1">
      <defs>
       <path id="m316d6dbfa6" d="M 0 0 
L 0 3.5 
" style="stroke: #000000; stroke-width: 0.8"/>
      </defs>
      <g>
       <use xlink:href="#m316d6dbfa6" x="45.239863" y="174.214923" style="stroke: #000000; stroke-width: 0.8"/>
      </g>
     </g>
     <g id="text_1">
      <text style="font: 10px 'DejaVu Sans', 'Bitstream Vera Sans', 'Computer Modern Sans Serif', 'Lucida Grande', 'Verdana', 'Geneva', 'Lucid', 'Arial', 'Helvetica', 'Avant Garde', sans-serif; text-anchor: middle" x="45.239863" y="188.813361" transform="rotate(-0 45.239863 188.813361)">0</text>
     </g>
    </g>
    <g id="xtick_2">
     <g id="line2d_2">
      <g>
       <use xlink:href="#m316d6dbfa6" x="84.320967" y="174.214923" style="stroke: #000000; stroke-width: 0.8"/>
      </g>
     </g>
     <g id="text_2">
      <text style="font: 10px 'DejaVu Sans', 'Bitstream Vera Sans', 'Computer Modern Sans Serif', 'Lucida Grande', 'Verdana', 'Geneva', 'Lucid', 'Arial', 'Helvetica', 'Avant Garde', sans-serif; text-anchor: middle" x="84.320967" y="188.813361" transform="rotate(-0 84.320967 188.813361)">50</text>
     </g>
    </g>
    <g id="xtick_3">
     <g id="line2d_3">
      <g>
       <use xlink:href="#m316d6dbfa6" x="123.402071" y="174.214923" style="stroke: #000000; stroke-width: 0.8"/>
      </g>
     </g>
     <g id="text_3">
      <text style="font: 10px 'DejaVu Sans', 'Bitstream Vera Sans', 'Computer Modern Sans Serif', 'Lucida Grande', 'Verdana', 'Geneva', 'Lucid', 'Arial', 'Helvetica', 'Avant Garde', sans-serif; text-anchor: middle" x="123.402071" y="188.813361" transform="rotate(-0 123.402071 188.813361)">100</text>
     </g>
    </g>
    <g id="xtick_4">
     <g id="line2d_4">
      <g>
       <use xlink:href="#m316d6dbfa6" x="162.483175" y="174.214923" style="stroke: #000000; stroke-width: 0.8"/>
      </g>
     </g>
     <g id="text_4">
      <text style="font: 10px 'DejaVu Sans', 'Bitstream Vera Sans', 'Computer Modern Sans Serif', 'Lucida Grande', 'Verdana', 'Geneva', 'Lucid', 'Arial', 'Helvetica', 'Avant Garde', sans-serif; text-anchor: middle" x="162.483175" y="188.813361" transform="rotate(-0 162.483175 188.813361)">150</text>
     </g>
    </g>
    <g id="xtick_5">
     <g id="line2d_5">
      <g>
       <use xlink:href="#m316d6dbfa6" x="201.564278" y="174.214923" style="stroke: #000000; stroke-width: 0.8"/>
      </g>
     </g>
     <g id="text_5">
      <text style="font: 10px 'DejaVu Sans', 'Bitstream Vera Sans', 'Computer Modern Sans Serif', 'Lucida Grande', 'Verdana', 'Geneva', 'Lucid', 'Arial', 'Helvetica', 'Avant Garde', sans-serif; text-anchor: middle" x="201.564278" y="188.813361" transform="rotate(-0 201.564278 188.813361)">200</text>
     </g>
    </g>
    <g id="xtick_6">
     <g id="line2d_6">
      <g>
       <use xlink:href="#m316d6dbfa6" x="240.645382" y="174.214923" style="stroke: #000000; stroke-width: 0.8"/>
      </g>
     </g>
     <g id="text_6">
      <text style="font: 10px 'DejaVu Sans', 'Bitstream Vera Sans', 'Computer Modern Sans Serif', 'Lucida Grande', 'Verdana', 'Geneva', 'Lucid', 'Arial', 'Helvetica', 'Avant Garde', sans-serif; text-anchor: middle" x="240.645382" y="188.813361" transform="rotate(-0 240.645382 188.813361)">250</text>
     </g>
    </g>
    <g id="xtick_7">
     <g id="line2d_7">
      <g>
       <use xlink:href="#m316d6dbfa6" x="279.726486" y="174.214923" style="stroke: #000000; stroke-width: 0.8"/>
      </g>
     </g>
     <g id="text_7">
      <text style="font: 10px 'DejaVu Sans', 'Bitstream Vera Sans', 'Computer Modern Sans Serif', 'Lucida Grande', 'Verdana', 'Geneva', 'Lucid', 'Arial', 'Helvetica', 'Avant Garde', sans-serif; text-anchor: middle" x="279.726486" y="188.813361" transform="rotate(-0 279.726486 188.813361)">300</text>
     </g>
    </g>
   </g>
   <g id="matplotlib.axis_2">
    <g id="ytick_1">
     <g id="line2d_8">
      <defs>
       <path id="maee8ad3940" d="M 0 0 
L -3.5 0 
" style="stroke: #000000; stroke-width: 0.8"/>
      </defs>
      <g>
       <use xlink:href="#maee8ad3940" x="33.710938" y="160.802654" style="stroke: #000000; stroke-width: 0.8"/>
      </g>
     </g>
     <g id="text_8">
      <text style="font: 10px 'DejaVu Sans', 'Bitstream Vera Sans', 'Computer Modern Sans Serif', 'Lucida Grande', 'Verdana', 'Geneva', 'Lucid', 'Arial', 'Helvetica', 'Avant Garde', sans-serif; text-anchor: end" x="26.710938" y="164.601873" transform="rotate(-0 26.710938 164.601873)">-0.6</text>
     </g>
    </g>
    <g id="ytick_2">
     <g id="line2d_9">
      <g>
       <use xlink:href="#maee8ad3940" x="33.710938" y="137.562905" style="stroke: #000000; stroke-width: 0.8"/>
      </g>
     </g>
     <g id="text_9">
      <text style="font: 10px 'DejaVu Sans', 'Bitstream Vera Sans', 'Computer Modern Sans Serif', 'Lucida Grande', 'Verdana', 'Geneva', 'Lucid', 'Arial', 'Helvetica', 'Avant Garde', sans-serif; text-anchor: end" x="26.710938" y="141.362124" transform="rotate(-0 26.710938 141.362124)">-0.4</text>
     </g>
    </g>
    <g id="ytick_3">
     <g id="line2d_10">
      <g>
       <use xlink:href="#maee8ad3940" x="33.710938" y="114.323157" style="stroke: #000000; stroke-width: 0.8"/>
      </g>
     </g>
     <g id="text_10">
      <text style="font: 10px 'DejaVu Sans', 'Bitstream Vera Sans', 'Computer Modern Sans Serif', 'Lucida Grande', 'Verdana', 'Geneva', 'Lucid', 'Arial', 'Helvetica', 'Avant Garde', sans-serif; text-anchor: end" x="26.710938" y="118.122376" transform="rotate(-0 26.710938 118.122376)">-0.2</text>
     </g>
    </g>
    <g id="ytick_4">
     <g id="line2d_11">
      <g>
       <use xlink:href="#maee8ad3940" x="33.710938" y="91.083408" style="stroke: #000000; stroke-width: 0.8"/>
      </g>
     </g>
     <g id="text_11">
      <text style="font: 10px 'DejaVu Sans', 'Bitstream Vera Sans', 'Computer Modern Sans Serif', 'Lucida Grande', 'Verdana', 'Geneva', 'Lucid', 'Arial', 'Helvetica', 'Avant Garde', sans-serif; text-anchor: end" x="26.710938" y="94.882627" transform="rotate(-0 26.710938 94.882627)">0.0</text>
     </g>
    </g>
    <g id="ytick_5">
     <g id="line2d_12">
      <g>
       <use xlink:href="#maee8ad3940" x="33.710938" y="67.843659" style="stroke: #000000; stroke-width: 0.8"/>
      </g>
     </g>
     <g id="text_12">
      <text style="font: 10px 'DejaVu Sans', 'Bitstream Vera Sans', 'Computer Modern Sans Serif', 'Lucida Grande', 'Verdana', 'Geneva', 'Lucid', 'Arial', 'Helvetica', 'Avant Garde', sans-serif; text-anchor: end" x="26.710938" y="71.642878" transform="rotate(-0 26.710938 71.642878)">0.2</text>
     </g>
    </g>
    <g id="ytick_6">
     <g id="line2d_13">
      <g>
       <use xlink:href="#maee8ad3940" x="33.710938" y="44.603911" style="stroke: #000000; stroke-width: 0.8"/>
      </g>
     </g>
     <g id="text_13">
      <text style="font: 10px 'DejaVu Sans', 'Bitstream Vera Sans', 'Computer Modern Sans Serif', 'Lucida Grande', 'Verdana', 'Geneva', 'Lucid', 'Arial', 'Helvetica', 'Avant Garde', sans-serif; text-anchor: end" x="26.710938" y="48.40313" transform="rotate(-0 26.710938 48.40313)">0.4</text>
     </g>
    </g>
    <g id="ytick_7">
     <g id="line2d_14">
      <g>
       <use xlink:href="#maee8ad3940" x="33.710938" y="21.364162" style="stroke: #000000; stroke-width: 0.8"/>
      </g>
     </g>
     <g id="text_14">
      <text style="font: 10px 'DejaVu Sans', 'Bitstream Vera Sans', 'Computer Modern Sans Serif', 'Lucida Grande', 'Verdana', 'Geneva', 'Lucid', 'Arial', 'Helvetica', 'Avant Garde', sans-serif; text-anchor: end" x="26.710938" y="25.163381" transform="rotate(-0 26.710938 25.163381)">0.6</text>
     </g>
    </g>
   </g>
   <g id="line2d_15">
    <path d="M 45.239863 24.736107 
L 46.803107 23.305614 
L 47.584729 24.391524 
L 48.366351 25.686404 
L 49.147973 23.059637 
L 49.929596 23.861266 
L 50.711218 20.728011 
L 51.49284 21.689925 
L 52.274462 20.803254 
L 53.056084 19.674589 
L 53.837706 19.924572 
L 54.619328 17.172379 
L 55.40095 20.96827 
L 56.182572 18.536676 
L 56.964194 20.5155 
L 57.745816 19.566826 
L 58.527438 19.725622 
L 59.30906 19.392814 
L 60.872305 21.367942 
L 61.653927 20.781149 
L 62.435549 25.130426 
L 63.217171 24.689966 
L 63.998793 24.805646 
L 64.780415 24.319889 
L 65.562037 25.839558 
L 66.343659 22.510412 
L 67.125281 24.301899 
L 67.906903 22.773629 
L 68.688525 24.359218 
L 69.470147 23.905549 
L 70.25177 24.389372 
L 71.033392 20.97747 
L 71.815014 20.290197 
L 72.596636 19.815466 
L 73.378258 18.222275 
L 74.15988 16.209426 
L 74.941502 18.403908 
L 75.723124 15.454923 
L 76.504746 17.630167 
L 77.286368 17.548624 
L 78.849612 17.981586 
L 79.631234 19.405212 
L 80.412857 19.706457 
L 81.194479 19.102386 
L 81.976101 19.47998 
L 82.757723 21.24793 
L 83.539345 22.347619 
L 84.320967 24.258898 
L 85.102589 29.991143 
L 85.884211 30.996633 
L 86.665833 31.76495 
L 87.447455 33.332532 
L 88.229077 33.720221 
L 89.010699 33.847056 
L 89.792321 36.515972 
L 90.573944 36.263254 
L 91.355566 40.074272 
L 92.137188 37.680355 
L 92.91881 40.736849 
L 93.700432 37.526309 
L 94.482054 39.972281 
L 95.263676 37.995236 
L 96.045298 40.877767 
L 96.82692 37.393847 
L 97.608542 40.596359 
L 98.390164 37.032151 
L 99.171786 37.795922 
L 99.953408 33.876558 
L 100.735031 35.802265 
L 101.516653 33.855477 
L 102.298275 33.707598 
L 103.079897 35.304688 
L 103.861519 33.873514 
L 104.643141 34.156078 
L 105.424763 31.193088 
L 106.206385 32.586501 
L 107.769629 30.321482 
L 108.551251 31.881813 
L 109.332873 31.968487 
L 110.114495 30.404723 
L 110.896117 30.787096 
L 111.67774 27.9686 
L 112.459362 28.101056 
L 113.240984 24.361081 
L 114.022606 26.948335 
L 114.804228 25.129719 
L 115.58585 24.127435 
L 116.367472 26.644462 
L 117.149094 27.519184 
L 117.930716 29.158858 
L 118.712338 32.909034 
L 119.49396 34.097293 
L 120.275582 53.443859 
L 121.057204 55.04499 
L 121.838827 56.970391 
L 122.620449 57.618682 
L 123.402071 63.810653 
L 124.183693 71.688406 
L 124.965315 84.439054 
L 125.746937 86.033695 
L 126.528559 86.5164 
L 127.310181 88.716417 
L 128.091803 90.49973 
L 128.873425 91.607007 
L 129.655047 94.547307 
L 130.436669 96.066101 
L 131.218291 96.226743 
L 131.999914 98.942566 
L 132.781536 99.221446 
L 133.563158 100.299248 
L 134.34478 103.206053 
L 135.126402 103.747615 
L 136.689646 108.006877 
L 137.471268 109.166161 
L 138.25289 109.876004 
L 139.034512 110.055747 
L 139.816134 109.957233 
L 140.597756 111.783648 
L 141.379378 112.964041 
L 142.161001 114.46596 
L 143.724245 116.187453 
L 144.505867 116.242552 
L 145.287489 118.441063 
L 146.069111 119.968823 
L 146.850733 120.556035 
L 147.632355 119.874703 
L 148.413977 123.136792 
L 149.195599 122.950951 
L 149.977221 122.228546 
L 150.758843 119.756046 
L 151.540465 121.511487 
L 152.322088 120.651964 
L 153.10371 120.119793 
L 153.885332 118.395751 
L 154.666954 117.975866 
L 155.448576 117.049414 
L 156.230198 115.286751 
L 157.01182 116.60783 
L 157.793442 117.574751 
L 158.575064 117.152709 
L 159.356686 119.203405 
L 160.138308 118.345742 
L 160.91993 118.818182 
L 161.701552 120.367384 
L 162.483175 117.536241 
L 163.264797 119.396341 
L 164.046419 119.38968 
L 164.828041 121.857712 
L 165.609663 121.371106 
L 166.391285 124.273145 
L 167.172907 123.753516 
L 167.954529 127.384692 
L 168.736151 126.493457 
L 169.517773 127.743766 
L 170.299395 126.209711 
L 171.081017 129.860755 
L 171.862639 130.566164 
L 172.644261 129.384219 
L 173.425884 133.106004 
L 174.207506 132.617247 
L 174.989128 131.971001 
L 175.77075 128.473758 
L 176.552372 128.669173 
L 177.333994 128.088268 
L 178.115616 129.258308 
L 178.897238 125.215373 
L 180.460482 123.536003 
L 181.242104 123.593005 
L 182.023726 122.213502 
L 183.586971 120.109815 
L 184.368593 121.326108 
L 185.150215 118.160083 
L 185.931837 119.070585 
L 187.495081 118.993384 
L 188.276703 120.390128 
L 189.058325 119.813165 
L 189.839947 120.762509 
L 190.621569 120.777477 
L 191.403191 122.519769 
L 192.184813 121.677413 
L 192.966435 124.190235 
L 193.748058 124.10417 
L 194.52968 126.171692 
L 195.311302 126.319158 
L 196.092924 125.801933 
L 196.874546 124.474482 
L 197.656168 127.759401 
L 198.43779 128.117994 
L 199.219412 130.549147 
L 200.001034 130.161735 
L 200.782656 131.764178 
L 201.564278 133.017951 
L 202.3459 134.044807 
L 203.127522 134.002465 
L 203.909145 134.576908 
L 204.690767 133.409082 
L 205.472389 135.745759 
L 206.254011 134.910607 
L 207.035633 134.453903 
L 207.817255 135.540427 
L 208.598877 131.812483 
L 209.380499 131.858547 
L 210.162121 132.842915 
L 210.943743 130.757079 
L 211.725365 131.810332 
L 212.506987 131.08801 
L 213.288609 134.498632 
L 214.070232 130.698907 
L 214.851854 133.814752 
L 215.633476 131.700594 
L 216.415098 132.649987 
L 217.19672 132.432124 
L 217.978342 133.10152 
L 218.759964 129.565703 
L 219.541586 130.277987 
L 220.323208 128.517116 
L 221.10483 130.480636 
L 221.886452 128.850274 
L 222.668074 129.063771 
L 224.231319 131.058276 
L 225.012941 128.735196 
L 225.794563 129.610916 
L 226.576185 129.341025 
L 227.357807 128.52015 
L 228.139429 125.926748 
L 228.921051 128.001219 
L 229.702673 126.504083 
L 230.484295 128.677671 
L 231.265917 126.303612 
L 232.047539 129.582232 
L 232.829161 127.215153 
L 233.610783 131.274899 
L 234.392405 129.729081 
L 235.174028 130.822041 
L 235.95565 132.551504 
L 236.737272 131.018416 
L 237.518894 133.890725 
L 238.300516 132.436724 
L 239.082138 136.140335 
L 239.86376 134.175021 
L 240.645382 136.487333 
L 241.427004 135.081098 
L 242.208626 134.917831 
L 242.990248 137.552134 
L 243.77187 136.820854 
L 244.553492 136.941754 
L 245.335115 138.787857 
L 246.116737 137.582867 
L 246.898359 140.193289 
L 247.679981 137.153303 
L 248.461603 138.61009 
L 249.243225 135.831195 
L 250.024847 136.514584 
L 252.369713 135.330346 
L 253.151335 132.237002 
L 253.932957 133.992433 
L 254.714579 133.251071 
L 255.496202 134.050294 
L 256.277824 130.517844 
L 257.059446 133.840629 
L 257.841068 131.410211 
L 258.62269 134.467098 
L 259.404312 132.373021 
L 260.185934 133.876074 
L 261.749178 130.901109 
L 262.5308 130.821173 
L 263.312422 130.467467 
L 264.094044 127.698051 
L 264.875666 128.721024 
L 265.657289 125.0068 
L 266.438911 125.74416 
L 267.220533 122.491598 
L 268.002155 124.076779 
L 268.783777 122.936034 
L 269.565399 124.078393 
L 270.347021 121.072212 
L 271.128643 123.943745 
L 271.910265 120.655367 
L 272.691887 124.064238 
L 273.473509 123.509151 
L 274.255131 122.037315 
L 275.036753 124.04389 
L 275.818376 122.968391 
L 275.818376 122.968391 
" clip-path="url(#p23fbd772e9)" style="fill: none; stroke: #1f77b4; stroke-linecap: square"/>
   </g>
   <g id="line2d_16">
    <path d="M 45.239863 112.670897 
L 46.021485 112.614296 
L 46.803107 115.698111 
L 47.584729 113.746034 
L 48.366351 116.899193 
L 49.147973 115.299829 
L 49.929596 117.43405 
L 50.711218 117.017238 
L 51.49284 119.442209 
L 53.056084 121.282194 
L 53.837706 121.562532 
L 54.619328 119.826689 
L 55.40095 122.140754 
L 56.182572 122.255454 
L 56.964194 125.836135 
L 57.745816 123.562165 
L 58.527438 127.391028 
L 59.30906 125.665884 
L 60.090683 127.341242 
L 60.872305 126.191415 
L 61.653927 129.249431 
L 62.435549 128.342203 
L 63.217171 132.527541 
L 63.998793 130.626422 
L 64.780415 132.363808 
L 65.562037 131.348382 
L 66.343659 132.417025 
L 67.125281 129.534352 
L 67.906903 130.436875 
L 68.688525 127.647054 
L 69.470147 128.481779 
L 70.25177 128.215172 
L 71.815014 124.722183 
L 72.596636 125.236227 
L 73.378258 122.981382 
L 74.15988 126.016246 
L 74.941502 125.5705 
L 75.723124 125.763413 
L 76.504746 127.398535 
L 77.286368 128.529885 
L 78.06799 129.121946 
L 78.849612 129.388742 
L 79.631234 130.874809 
L 80.412857 131.676087 
L 81.194479 130.466045 
L 81.976101 133.180747 
L 82.757723 130.562498 
L 83.539345 133.862847 
L 84.320967 130.086145 
L 85.102589 133.842183 
L 85.884211 132.051681 
L 86.665833 132.48506 
L 87.447455 131.887853 
L 88.229077 131.747937 
L 89.010699 131.247533 
L 89.792321 130.951446 
L 91.355566 128.607931 
L 92.137188 129.256119 
L 92.91881 125.282022 
L 93.700432 126.541681 
L 94.482054 125.905952 
L 95.263676 128.585425 
L 96.82692 125.120955 
L 97.608542 128.531586 
L 98.390164 126.994102 
L 99.171786 130.180305 
L 99.953408 128.958881 
L 100.735031 130.166447 
L 101.516653 128.506787 
L 102.298275 127.607197 
L 103.079897 128.245631 
L 103.861519 125.680962 
L 104.643141 129.049844 
L 105.424763 126.695234 
L 106.206385 126.705072 
L 106.988007 126.029293 
L 107.769629 127.44773 
L 108.551251 127.5796 
L 109.332873 129.13175 
L 110.114495 128.088829 
L 110.896117 129.842342 
L 111.67774 131.065085 
L 112.459362 130.653527 
L 113.240984 132.189573 
L 114.022606 131.814037 
L 114.804228 135.139502 
L 115.58585 133.321027 
L 116.367472 135.290335 
L 117.149094 135.323729 
L 117.930716 136.638614 
L 118.712338 140.49496 
L 119.49396 139.267987 
L 120.275582 140.891009 
L 121.057204 143.982026 
L 121.838827 145.557853 
L 122.620449 145.802075 
L 123.402071 147.584711 
L 124.183693 148.297819 
L 124.965315 148.326968 
L 125.746937 148.948897 
L 126.528559 150.869055 
L 127.310181 151.50093 
L 128.091803 152.466829 
L 128.873425 156.13976 
L 129.655047 156.047876 
L 130.436669 157.361895 
L 131.218291 157.796679 
L 131.999914 157.243642 
L 132.781536 158.756853 
L 133.563158 159.306885 
L 134.34478 158.362166 
L 135.126402 159.565624 
L 135.908024 159.74734 
L 136.689646 158.713499 
L 137.471268 157.409541 
L 138.25289 158.868716 
L 139.034512 157.336523 
L 139.816134 159.785888 
L 140.597756 157.793013 
L 141.379378 159.812987 
L 142.161001 159.744092 
L 142.942623 161.200239 
L 143.724245 160.279906 
L 144.505867 160.538063 
L 145.287489 162.136947 
L 146.069111 159.128213 
L 146.850733 161.428079 
L 147.632355 158.952557 
L 148.413977 159.299856 
L 149.195599 155.363024 
L 149.977221 159.137922 
L 150.758843 157.187246 
L 151.540465 160.813527 
L 153.10371 158.196445 
L 153.885332 160.804894 
L 154.666954 160.613789 
L 155.448576 162.080135 
L 156.230198 160.123624 
L 157.01182 163.210321 
L 157.793442 161.587094 
L 158.575064 164.118921 
L 159.356686 161.250445 
L 160.138308 162.24263 
L 160.91993 161.373099 
L 161.701552 163.408449 
L 162.483175 159.611317 
L 163.264797 160.148669 
L 164.046419 157.748078 
L 164.828041 158.478993 
L 165.609663 157.148631 
L 166.391285 159.320972 
L 167.172907 156.956261 
L 167.954529 159.843791 
L 168.736151 157.839072 
L 169.517773 159.962722 
L 170.299395 158.03167 
L 171.081017 159.44223 
L 171.862639 158.860728 
L 172.644261 157.457764 
L 173.425884 155.679874 
L 174.207506 154.779904 
L 174.989128 154.855786 
L 175.77075 156.960173 
L 176.552372 157.65775 
L 177.333994 159.408021 
L 178.115616 159.87667 
L 178.897238 158.964669 
L 179.67886 162.414294 
L 180.460482 161.363213 
L 181.242104 158.702794 
L 182.023726 163.024893 
L 182.805348 162.273679 
L 183.586971 163.475518 
L 184.368593 162.407276 
L 185.150215 166.654923 
L 185.931837 162.911598 
L 186.713459 163.399733 
L 187.495081 162.874057 
L 188.276703 162.767196 
L 189.058325 160.582249 
L 189.839947 160.992294 
L 190.621569 161.023226 
L 191.403191 160.657906 
L 192.184813 158.394426 
L 192.966435 157.943177 
L 193.748058 158.01669 
L 194.52968 154.95554 
L 195.311302 150.65904 
L 196.092924 149.903428 
L 196.874546 147.228056 
L 197.656168 146.835196 
L 198.43779 145.958744 
L 199.219412 144.503279 
L 200.001034 143.553725 
L 200.782656 132.68781 
L 201.564278 127.722531 
L 202.3459 127.265366 
L 203.127522 127.081948 
L 203.909145 127.244129 
L 204.690767 123.999973 
L 205.472389 124.988516 
L 206.254011 121.953131 
L 207.035633 122.606454 
L 207.817255 120.433448 
L 208.598877 121.862813 
L 209.380499 119.717005 
L 210.162121 119.420978 
L 210.943743 117.452375 
L 211.725365 117.448574 
L 212.506987 116.213683 
L 213.288609 115.279495 
L 214.070232 112.379223 
L 214.851854 112.771397 
L 215.633476 110.556125 
L 216.415098 111.407661 
L 217.19672 108.209928 
L 217.978342 109.768898 
L 218.759964 110.861868 
L 219.541586 110.534015 
L 220.323208 111.595432 
L 221.10483 111.431355 
L 221.886452 112.089969 
L 222.668074 111.97551 
L 223.449696 111.338844 
L 224.231319 111.29374 
L 225.012941 110.967699 
L 225.794563 107.772955 
L 226.576185 110.997222 
L 228.139429 107.765357 
L 228.921051 108.983108 
L 229.702673 105.114602 
L 230.484295 106.035425 
L 231.265917 102.560442 
L 232.047539 104.002194 
L 232.829161 103.097308 
L 233.610783 101.612167 
L 234.392405 101.254802 
L 235.174028 100.762125 
L 235.95565 101.382912 
L 236.737272 97.657933 
L 237.518894 99.238608 
L 238.300516 99.168529 
L 239.082138 98.674725 
L 239.86376 95.86744 
L 240.645382 97.288332 
L 241.427004 93.997741 
L 242.208626 96.411362 
L 242.990248 93.628227 
L 243.77187 94.955877 
L 244.553492 91.576016 
L 245.335115 94.59117 
L 246.116737 92.740064 
L 246.898359 94.484948 
L 247.679981 91.252386 
L 248.461603 93.26802 
L 249.243225 91.660971 
L 250.024847 94.028621 
L 250.806469 91.213879 
L 251.588091 93.41253 
L 252.369713 92.848187 
L 253.151335 92.789621 
L 253.932957 93.5826 
L 254.714579 92.586316 
L 255.496202 94.218289 
L 256.277824 93.048551 
L 257.059446 95.371065 
L 257.841068 94.845445 
L 258.62269 93.118058 
L 259.404312 94.445412 
L 260.185934 93.242159 
L 260.967556 94.197515 
L 261.749178 93.696262 
L 262.5308 96.178013 
L 263.312422 95.070083 
L 264.094044 98.156008 
L 264.875666 97.600944 
L 265.657289 100.807065 
L 266.438911 100.030368 
L 267.220533 100.284176 
L 268.002155 103.177803 
L 268.783777 102.591557 
L 269.565399 103.073194 
L 270.347021 102.265938 
L 271.128643 105.890372 
L 271.910265 105.803531 
L 272.691887 108.988134 
L 273.473509 108.697933 
L 274.255131 110.997804 
L 275.036753 110.095133 
L 275.818376 112.098831 
L 275.818376 112.098831 
" clip-path="url(#p23fbd772e9)" style="fill: none; stroke: #ff7f0e; stroke-linecap: square"/>
   </g>
   <g id="line2d_17">
    <path d="M 45.239863 146.795993 
L 46.021485 148.853385 
L 46.803107 146.894101 
L 47.584729 148.789779 
L 48.366351 147.614034 
L 49.147973 150.306707 
L 49.929596 148.984267 
L 50.711218 151.792883 
L 51.49284 149.692854 
L 52.274462 152.578324 
L 53.056084 151.019511 
L 53.837706 151.779181 
L 54.619328 151.795778 
L 55.40095 152.540917 
L 56.182572 156.476374 
L 56.964194 154.313065 
L 57.745816 157.735399 
L 58.527438 157.148859 
L 59.30906 155.79597 
L 60.090683 155.998387 
L 60.872305 152.724904 
L 61.653927 154.405538 
L 62.435549 154.005787 
L 63.217171 152.599873 
L 63.998793 154.993694 
L 64.780415 153.370418 
L 65.562037 156.345716 
L 66.343659 153.931098 
L 67.125281 155.539675 
L 67.906903 153.681025 
L 68.688525 154.355461 
L 69.470147 150.838106 
L 70.25177 151.610704 
L 71.033392 150.245217 
L 71.815014 150.441069 
L 72.596636 149.562267 
L 74.15988 153.163662 
L 74.941502 151.564255 
L 75.723124 153.499775 
L 76.504746 152.097207 
L 77.286368 155.990568 
L 78.06799 156.388228 
L 78.849612 154.83464 
L 79.631234 158.369771 
L 80.412857 156.544426 
L 81.194479 157.180977 
L 81.976101 154.574804 
L 82.757723 155.202749 
L 83.539345 152.310878 
L 84.320967 152.650043 
L 85.102589 150.210987 
L 85.884211 128.190288 
L 86.665833 124.68239 
L 87.447455 124.70881 
L 88.229077 124.58447 
L 89.010699 123.208132 
L 89.792321 124.981128 
L 90.573944 122.605506 
L 92.137188 120.882955 
L 92.91881 120.622064 
L 94.482054 117.233694 
L 95.263676 113.883881 
L 96.045298 114.144515 
L 96.82692 110.488669 
L 97.608542 112.469568 
L 98.390164 112.861129 
L 99.171786 110.357864 
L 99.953408 112.23959 
L 100.735031 108.738906 
L 101.516653 109.316476 
L 102.298275 106.223099 
L 103.079897 105.241851 
L 103.861519 104.717456 
L 104.643141 103.968383 
L 105.424763 103.38766 
L 106.206385 101.644535 
L 106.988007 98.130473 
L 108.551251 96.820787 
L 109.332873 95.534112 
L 110.114495 95.498414 
L 110.896117 92.509134 
L 111.67774 91.778204 
L 112.459362 91.296498 
L 113.240984 91.182276 
L 114.022606 90.708227 
L 114.804228 90.04703 
L 115.58585 88.643274 
L 116.367472 86.942398 
L 117.149094 85.733513 
L 117.930716 83.985227 
L 118.712338 83.242017 
L 119.49396 81.476321 
L 120.275582 78.43161 
L 121.057204 77.563069 
L 121.838827 77.252115 
L 122.620449 76.674687 
L 123.402071 72.856279 
L 124.183693 71.165104 
L 124.965315 64.020855 
L 126.528559 63.632861 
L 127.310181 62.915758 
L 128.091803 59.598658 
L 128.873425 55.740389 
L 129.655047 54.911512 
L 131.218291 52.868852 
L 131.999914 49.252541 
L 132.781536 50.674577 
L 133.563158 48.079055 
L 134.34478 46.295506 
L 135.126402 47.266126 
L 135.908024 44.480134 
L 136.689646 45.213951 
L 137.471268 42.580414 
L 138.25289 44.393718 
L 139.034512 42.539397 
L 139.816134 41.452149 
L 140.597756 40.973073 
L 141.379378 40.793569 
L 142.161001 40.136673 
L 142.942623 39.783665 
L 143.724245 38.614814 
L 144.505867 40.769806 
L 145.287489 39.525137 
L 146.069111 40.668509 
L 146.850733 40.753941 
L 147.632355 36.783278 
L 148.413977 38.117655 
L 149.195599 37.828217 
L 149.977221 40.839883 
L 150.758843 40.17004 
L 151.540465 41.135923 
L 152.322088 40.100987 
L 153.10371 42.65833 
L 153.885332 42.096343 
L 154.666954 44.049134 
L 155.448576 43.509477 
L 157.01182 45.334533 
L 157.793442 43.957291 
L 158.575064 42.844201 
L 159.356686 44.424126 
L 160.138308 40.812426 
L 160.91993 41.559472 
L 161.701552 38.393923 
L 162.483175 39.193377 
L 163.264797 35.56341 
L 164.046419 38.299384 
L 164.828041 35.63536 
L 165.609663 36.267466 
L 166.391285 34.338327 
L 167.172907 34.293673 
L 167.954529 32.566297 
L 168.736151 32.724381 
L 169.517773 30.073596 
L 170.299395 31.016373 
L 171.081017 27.992109 
L 171.862639 28.450599 
L 172.644261 27.856313 
L 173.425884 28.941073 
L 174.207506 26.389852 
L 174.989128 29.78064 
L 175.77075 28.265925 
L 176.552372 28.43262 
L 177.333994 26.409693 
L 178.115616 27.090659 
L 178.897238 28.573428 
L 179.67886 29.162501 
L 180.460482 31.313163 
L 181.242104 29.559148 
L 182.023726 32.439905 
L 182.805348 30.787856 
L 183.586971 33.278814 
L 184.368593 32.317212 
L 185.150215 35.938154 
L 185.931837 33.672217 
L 186.713459 35.301011 
L 187.495081 36.043361 
L 188.276703 34.409055 
L 189.058325 36.749872 
L 189.839947 37.198165 
L 191.403191 38.568092 
L 192.184813 38.771991 
L 192.966435 40.114372 
L 193.748058 41.69355 
L 194.52968 41.859337 
L 196.092924 48.825566 
L 196.874546 47.258566 
L 197.656168 50.679015 
L 198.43779 48.833229 
L 200.001034 51.275848 
L 200.782656 52.954973 
L 201.564278 53.057471 
L 202.3459 55.031556 
L 203.127522 57.566618 
L 203.909145 55.595966 
L 204.690767 58.061544 
L 205.472389 57.099378 
L 206.254011 61.105129 
L 207.035633 60.450466 
L 207.817255 62.019822 
L 208.598877 60.951096 
L 209.380499 63.049351 
L 210.162121 61.288087 
L 210.943743 63.695072 
L 211.725365 62.725659 
L 212.506987 63.048936 
L 213.288609 63.668883 
L 214.070232 62.540187 
L 214.851854 65.154319 
L 215.633476 63.635036 
L 216.415098 65.699504 
L 217.19672 62.560807 
L 217.978342 62.707756 
L 218.759964 60.166266 
L 219.541586 60.385214 
L 220.323208 59.457663 
L 221.10483 61.056453 
L 221.886452 59.086253 
L 222.668074 60.019509 
L 223.449696 58.019058 
L 224.231319 58.198147 
L 225.012941 56.78511 
L 225.794563 54.929748 
L 226.576185 57.656862 
L 227.357807 56.666928 
L 228.139429 60.287804 
L 228.921051 57.446719 
L 229.702673 60.657194 
L 230.484295 57.521569 
L 231.265917 59.998192 
L 232.047539 60.041924 
L 232.829161 62.321029 
L 233.610783 60.543157 
L 234.392405 63.640329 
L 235.174028 62.498029 
L 235.95565 63.153074 
L 236.737272 63.213674 
L 237.518894 61.797364 
L 238.300516 64.731176 
L 239.082138 63.627048 
L 239.86376 66.146664 
L 240.645382 63.103231 
L 241.427004 66.571336 
L 242.208626 65.904605 
L 242.990248 68.464612 
L 243.77187 68.066564 
L 244.553492 69.092726 
L 245.335115 68.666408 
L 246.116737 70.050876 
L 246.898359 68.369388 
L 247.679981 69.165932 
L 248.461603 69.087853 
L 249.243225 72.32539 
L 250.024847 69.733901 
L 250.806469 72.59883 
L 251.588091 71.516694 
L 252.369713 71.514743 
L 253.151335 71.307639 
L 253.932957 72.519856 
L 254.714579 71.153287 
L 255.496202 70.408024 
L 256.277824 70.510494 
L 257.059446 70.792057 
L 257.841068 68.61163 
L 258.62269 72.042423 
L 259.404312 70.993559 
L 260.185934 74.274985 
L 260.967556 72.580462 
L 261.749178 72.928007 
L 262.5308 69.914802 
L 263.312422 72.58101 
L 264.094044 70.05105 
L 264.875666 73.781447 
L 265.657289 72.276576 
L 266.438911 74.532182 
L 267.220533 73.062119 
L 268.002155 75.57393 
L 268.783777 73.741632 
L 269.565399 72.4648 
L 270.347021 75.25913 
L 271.128643 72.575616 
L 271.910265 73.251555 
L 272.691887 69.456844 
L 273.473509 68.845969 
L 274.255131 67.309212 
L 275.036753 66.581482 
L 275.818376 66.509476 
L 275.818376 66.509476 
" clip-path="url(#p23fbd772e9)" style="fill: none; stroke: #2ca02c; stroke-linecap: square"/>
   </g>
   <g id="patch_3">
    <path d="M 33.710938 174.214923 
L 33.710938 7.894923 
" style="fill: none; stroke: #000000; stroke-width: 0.8; stroke-linejoin: miter; stroke-linecap: square"/>
   </g>
   <g id="patch_4">
    <path d="M 287.347301 174.214923 
L 287.347301 7.894923 
" style="fill: none; stroke: #000000; stroke-width: 0.8; stroke-linejoin: miter; stroke-linecap: square"/>
   </g>
   <g id="patch_5">
    <path d="M 33.710938 174.214923 
L 287.347301 174.214923 
" style="fill: none; stroke: #000000; stroke-width: 0.8; stroke-linejoin: miter; stroke-linecap: square"/>
   </g>
   <g id="patch_6">
    <path d="M 33.710938 7.894923 
L 287.347301 7.894923 
" style="fill: none; stroke: #000000; stroke-width: 0.8; stroke-linejoin: miter; stroke-linecap: square"/>
   </g>
   <g id="legend_1">
    <g id="patch_7">
     <path d="M 241.947301 59.929298 
L 280.347301 59.929298 
Q 282.347301 59.929298 282.347301 57.929298 
L 282.347301 14.894923 
Q 282.347301 12.894923 280.347301 12.894923 
L 241.947301 12.894923 
Q 239.947301 12.894923 239.947301 14.894923 
L 239.947301 57.929298 
Q 239.947301 59.929298 241.947301 59.929298 
z
" style="fill: #ffffff; opacity: 0.8; stroke: #cccccc; stroke-linejoin: miter"/>
    </g>
    <g id="line2d_18">
     <path d="M 243.947301 20.993361 
L 253.947301 20.993361 
L 263.947301 20.993361 
" style="fill: none; stroke: #1f77b4; stroke-linecap: square"/>
    </g>
    <g id="text_15">
     <!-- $a$ -->
     <g transform="translate(271.947301 24.493361)">
      <text>
       <tspan style="font: oblique 10px 'DejaVu Sans'" x="0" y="-0.40625">a</tspan>
      </text>
     </g>
    </g>
    <g id="line2d_19">
     <path d="M 243.947301 35.671486 
L 253.947301 35.671486 
L 263.947301 35.671486 
" style="fill: none; stroke: #ff7f0e; stroke-linecap: square"/>
    </g>
    <g id="text_16">
     <!-- $b$ -->
     <g transform="translate(271.947301 39.171486)">
      <text>
       <tspan style="font: oblique 10px 'DejaVu Sans'" x="0" y="-0.40625">b</tspan>
      </text>
     </g>
    </g>
    <g id="line2d_20">
     <path d="M 243.947301 50.349611 
L 253.947301 50.349611 
L 263.947301 50.349611 
" style="fill: none; stroke: #2ca02c; stroke-linecap: square"/>
    </g>
    <g id="text_17">
     <!-- $c$ -->
     <g transform="translate(271.947301 53.849611)">
      <text>
       <tspan style="font: oblique 10px 'DejaVu Sans'" x="0" y="-0.40625">c</tspan>
      </text>
     </g>
    </g>
   </g>
  </g>
  <g id="axes_2">
   <g id="patch_8">
    <path d="M 338.074574 174.214923 
L 591.710937 174.214923 
L 591.710937 7.894923 
L 338.074574 7.894923 
z
" style="fill: #ffffff"/>
   </g>
   <g id="matplotlib.axis_3">
    <g id="xtick_8">
     <g id="line2d_21">
      <g>
       <use xlink:href="#m316d6dbfa6" x="349.603499" y="174.214923" style="stroke: #000000; stroke-width: 0.8"/>
      </g>
     </g>
     <g id="text_18">
      <text style="font: 10px 'DejaVu Sans', 'Bitstream Vera Sans', 'Computer Modern Sans Serif', 'Lucida Grande', 'Verdana', 'Geneva', 'Lucid', 'Arial', 'Helvetica', 'Avant Garde', sans-serif; text-anchor: middle" x="349.603499" y="188.813361" transform="rotate(-0 349.603499 188.813361)">0</text>
     </g>
    </g>
    <g id="xtick_9">
     <g id="line2d_22">
      <g>
       <use xlink:href="#m316d6dbfa6" x="388.684603" y="174.214923" style="stroke: #000000; stroke-width: 0.8"/>
      </g>
     </g>
     <g id="text_19">
      <text style="font: 10px 'DejaVu Sans', 'Bitstream Vera Sans', 'Computer Modern Sans Serif', 'Lucida Grande', 'Verdana', 'Geneva', 'Lucid', 'Arial', 'Helvetica', 'Avant Garde', sans-serif; text-anchor: middle" x="388.684603" y="188.813361" transform="rotate(-0 388.684603 188.813361)">50</text>
     </g>
    </g>
    <g id="xtick_10">
     <g id="line2d_23">
      <g>
       <use xlink:href="#m316d6dbfa6" x="427.765707" y="174.214923" style="stroke: #000000; stroke-width: 0.8"/>
      </g>
     </g>
     <g id="text_20">
      <text style="font: 10px 'DejaVu Sans', 'Bitstream Vera Sans', 'Computer Modern Sans Serif', 'Lucida Grande', 'Verdana', 'Geneva', 'Lucid', 'Arial', 'Helvetica', 'Avant Garde', sans-serif; text-anchor: middle" x="427.765707" y="188.813361" transform="rotate(-0 427.765707 188.813361)">100</text>
     </g>
    </g>
    <g id="xtick_11">
     <g id="line2d_24">
      <g>
       <use xlink:href="#m316d6dbfa6" x="466.846811" y="174.214923" style="stroke: #000000; stroke-width: 0.8"/>
      </g>
     </g>
     <g id="text_21">
      <text style="font: 10px 'DejaVu Sans', 'Bitstream Vera Sans', 'Computer Modern Sans Serif', 'Lucida Grande', 'Verdana', 'Geneva', 'Lucid', 'Arial', 'Helvetica', 'Avant Garde', sans-serif; text-anchor: middle" x="466.846811" y="188.813361" transform="rotate(-0 466.846811 188.813361)">150</text>
     </g>
    </g>
    <g id="xtick_12">
     <g id="line2d_25">
      <g>
       <use xlink:href="#m316d6dbfa6" x="505.927915" y="174.214923" style="stroke: #000000; stroke-width: 0.8"/>
      </g>
     </g>
     <g id="text_22">
      <text style="font: 10px 'DejaVu Sans', 'Bitstream Vera Sans', 'Computer Modern Sans Serif', 'Lucida Grande', 'Verdana', 'Geneva', 'Lucid', 'Arial', 'Helvetica', 'Avant Garde', sans-serif; text-anchor: middle" x="505.927915" y="188.813361" transform="rotate(-0 505.927915 188.813361)">200</text>
     </g>
    </g>
    <g id="xtick_13">
     <g id="line2d_26">
      <g>
       <use xlink:href="#m316d6dbfa6" x="545.009018" y="174.214923" style="stroke: #000000; stroke-width: 0.8"/>
      </g>
     </g>
     <g id="text_23">
      <text style="font: 10px 'DejaVu Sans', 'Bitstream Vera Sans', 'Computer Modern Sans Serif', 'Lucida Grande', 'Verdana', 'Geneva', 'Lucid', 'Arial', 'Helvetica', 'Avant Garde', sans-serif; text-anchor: middle" x="545.009018" y="188.813361" transform="rotate(-0 545.009018 188.813361)">250</text>
     </g>
    </g>
    <g id="xtick_14">
     <g id="line2d_27">
      <g>
       <use xlink:href="#m316d6dbfa6" x="584.090122" y="174.214923" style="stroke: #000000; stroke-width: 0.8"/>
      </g>
     </g>
     <g id="text_24">
      <text style="font: 10px 'DejaVu Sans', 'Bitstream Vera Sans', 'Computer Modern Sans Serif', 'Lucida Grande', 'Verdana', 'Geneva', 'Lucid', 'Arial', 'Helvetica', 'Avant Garde', sans-serif; text-anchor: middle" x="584.090122" y="188.813361" transform="rotate(-0 584.090122 188.813361)">300</text>
     </g>
    </g>
   </g>
   <g id="matplotlib.axis_4">
    <g id="ytick_8">
     <g id="line2d_28">
      <g>
       <use xlink:href="#maee8ad3940" x="338.074574" y="159.649064" style="stroke: #000000; stroke-width: 0.8"/>
      </g>
     </g>
     <g id="text_25">
      <text style="font: 10px 'DejaVu Sans', 'Bitstream Vera Sans', 'Computer Modern Sans Serif', 'Lucida Grande', 'Verdana', 'Geneva', 'Lucid', 'Arial', 'Helvetica', 'Avant Garde', sans-serif; text-anchor: end" x="331.074574" y="163.448283" transform="rotate(-0 331.074574 163.448283)">-0.15</text>
     </g>
    </g>
    <g id="ytick_9">
     <g id="line2d_29">
      <g>
       <use xlink:href="#maee8ad3940" x="338.074574" y="138.413372" style="stroke: #000000; stroke-width: 0.8"/>
      </g>
     </g>
     <g id="text_26">
      <text style="font: 10px 'DejaVu Sans', 'Bitstream Vera Sans', 'Computer Modern Sans Serif', 'Lucida Grande', 'Verdana', 'Geneva', 'Lucid', 'Arial', 'Helvetica', 'Avant Garde', sans-serif; text-anchor: end" x="331.074574" y="142.212591" transform="rotate(-0 331.074574 142.212591)">-0.10</text>
     </g>
    </g>
    <g id="ytick_10">
     <g id="line2d_30">
      <g>
       <use xlink:href="#maee8ad3940" x="338.074574" y="117.17768" style="stroke: #000000; stroke-width: 0.8"/>
      </g>
     </g>
     <g id="text_27">
      <text style="font: 10px 'DejaVu Sans', 'Bitstream Vera Sans', 'Computer Modern Sans Serif', 'Lucida Grande', 'Verdana', 'Geneva', 'Lucid', 'Arial', 'Helvetica', 'Avant Garde', sans-serif; text-anchor: end" x="331.074574" y="120.976899" transform="rotate(-0 331.074574 120.976899)">-0.05</text>
     </g>
    </g>
    <g id="ytick_11">
     <g id="line2d_31">
      <g>
       <use xlink:href="#maee8ad3940" x="338.074574" y="95.941988" style="stroke: #000000; stroke-width: 0.8"/>
      </g>
     </g>
     <g id="text_28">
      <text style="font: 10px 'DejaVu Sans', 'Bitstream Vera Sans', 'Computer Modern Sans Serif', 'Lucida Grande', 'Verdana', 'Geneva', 'Lucid', 'Arial', 'Helvetica', 'Avant Garde', sans-serif; text-anchor: end" x="331.074574" y="99.741206" transform="rotate(-0 331.074574 99.741206)">0.00</text>
     </g>
    </g>
    <g id="ytick_12">
     <g id="line2d_32">
      <g>
       <use xlink:href="#maee8ad3940" x="338.074574" y="74.706295" style="stroke: #000000; stroke-width: 0.8"/>
      </g>
     </g>
     <g id="text_29">
      <text style="font: 10px 'DejaVu Sans', 'Bitstream Vera Sans', 'Computer Modern Sans Serif', 'Lucida Grande', 'Verdana', 'Geneva', 'Lucid', 'Arial', 'Helvetica', 'Avant Garde', sans-serif; text-anchor: end" x="331.074574" y="78.505514" transform="rotate(-0 331.074574 78.505514)">0.05</text>
     </g>
    </g>
    <g id="ytick_13">
     <g id="line2d_33">
      <g>
       <use xlink:href="#maee8ad3940" x="338.074574" y="53.470603" style="stroke: #000000; stroke-width: 0.8"/>
      </g>
     </g>
     <g id="text_30">
      <text style="font: 10px 'DejaVu Sans', 'Bitstream Vera Sans', 'Computer Modern Sans Serif', 'Lucida Grande', 'Verdana', 'Geneva', 'Lucid', 'Arial', 'Helvetica', 'Avant Garde', sans-serif; text-anchor: end" x="331.074574" y="57.269822" transform="rotate(-0 331.074574 57.269822)">0.10</text>
     </g>
    </g>
    <g id="ytick_14">
     <g id="line2d_34">
      <g>
       <use xlink:href="#maee8ad3940" x="338.074574" y="32.234911" style="stroke: #000000; stroke-width: 0.8"/>
      </g>
     </g>
     <g id="text_31">
      <text style="font: 10px 'DejaVu Sans', 'Bitstream Vera Sans', 'Computer Modern Sans Serif', 'Lucida Grande', 'Verdana', 'Geneva', 'Lucid', 'Arial', 'Helvetica', 'Avant Garde', sans-serif; text-anchor: end" x="331.074574" y="36.03413" transform="rotate(-0 331.074574 36.03413)">0.15</text>
     </g>
    </g>
    <g id="ytick_15">
     <g id="line2d_35">
      <g>
       <use xlink:href="#maee8ad3940" x="338.074574" y="10.999219" style="stroke: #000000; stroke-width: 0.8"/>
      </g>
     </g>
     <g id="text_32">
      <text style="font: 10px 'DejaVu Sans', 'Bitstream Vera Sans', 'Computer Modern Sans Serif', 'Lucida Grande', 'Verdana', 'Geneva', 'Lucid', 'Arial', 'Helvetica', 'Avant Garde', sans-serif; text-anchor: end" x="331.074574" y="14.798437" transform="rotate(-0 331.074574 14.798437)">0.20</text>
     </g>
    </g>
   </g>
   <g id="line2d_36">
    <path d="M 349.603499 93.253994 
L 350.385122 93.401439 
L 351.166744 99.911056 
L 351.948366 100.674859 
L 352.729988 86.340985 
L 353.51161 98.871993 
L 354.293232 84.489739 
L 355.074854 99.457846 
L 355.856476 92.701147 
L 356.638098 91.816648 
L 357.41972 96.855689 
L 358.201342 85.882548 
L 358.982964 109.816213 
L 359.764586 87.054355 
L 360.546209 103.174715 
L 361.327831 92.474526 
L 362.109453 96.522395 
L 362.891075 94.725552 
L 363.672697 99.353646 
L 364.454319 99.749551 
L 365.235941 93.79722 
L 366.017563 111.838872 
L 366.799185 94.33208 
L 367.580807 96.364807 
L 368.362429 94.166515 
L 369.144051 101.496473 
L 369.925673 83.773746 
L 370.707296 102.489989 
L 371.488918 90.356063 
L 372.27054 101.737417 
L 373.052162 94.283796 
L 373.833784 97.710393 
L 374.615406 83.471266 
L 375.397028 93.429961 
L 376.17865 94.206817 
L 376.960272 90.118772 
L 377.741894 88.584894 
L 378.523516 103.96296 
L 379.305138 85.163261 
L 380.08676 103.892643 
L 380.868383 95.643942 
L 381.650005 96.69875 
L 382.431627 96.767728 
L 383.213249 101.145435 
L 383.994871 97.043056 
L 384.776493 93.734068 
L 385.558115 97.322121 
L 386.339737 102.403957 
L 387.121359 99.96142 
L 387.902981 102.927837 
L 388.684603 116.89371 
L 389.466225 99.617117 
L 390.247847 98.750236 
L 391.02947 101.671599 
L 391.811092 97.359017 
L 392.592714 96.405576 
L 393.374336 105.697048 
L 394.155958 95.018287 
L 394.93758 109.871505 
L 395.719202 87.192065 
L 396.500824 107.11367 
L 397.282446 84.207259 
L 398.064068 104.88217 
L 398.84569 88.715762 
L 399.627312 106.477826 
L 400.408934 83.208037 
L 401.190556 107.647374 
L 401.972179 82.914579 
L 402.753801 98.733618 
L 403.535423 81.616463 
L 404.317045 102.980571 
L 405.098667 88.826352 
L 406.661911 101.779454 
L 407.443533 90.710953 
L 408.225155 96.97478 
L 409.006777 85.112069 
L 409.788399 101.035002 
L 410.570021 91.457455 
L 411.351643 92.147731 
L 412.133266 101.645098 
L 413.69651 90.226331 
L 414.478132 97.339583 
L 415.259754 85.640206 
L 416.041376 96.426121 
L 416.822998 82.27214 
L 417.60462 105.398567 
L 418.386242 89.294829 
L 419.167864 92.278576 
L 419.949486 105.141884 
L 420.731108 99.139151 
L 421.51273 101.935104 
L 422.294353 109.649121 
L 423.075975 100.28515 
L 423.857597 166.654923 
L 424.639219 101.794226 
L 425.420841 102.979452 
L 426.202463 98.311531 
L 426.984085 118.57404 
L 427.765707 124.735679 
L 428.547329 142.54642 
L 429.328951 101.770502 
L 430.110573 97.706306 
L 430.892195 103.98319 
L 431.673817 102.460113 
L 432.45544 99.989155 
L 433.237062 106.688971 
L 434.800306 96.529147 
L 435.581928 105.868495 
L 436.36355 96.961311 
L 437.145172 99.881422 
L 437.926794 106.566547 
L 438.708416 97.921432 
L 439.490038 103.418838 
L 440.27166 104.033012 
L 441.053282 100.179247 
L 441.834904 98.536509 
L 442.616527 96.598961 
L 443.398149 95.581912 
L 444.179771 102.617651 
L 444.961393 100.256401 
L 445.743015 101.431598 
L 446.524637 99.002915 
L 447.306259 99.173226 
L 448.087881 96.143377 
L 448.869503 103.977687 
L 449.651125 101.526048 
L 450.432747 98.088286 
L 451.214369 93.451678 
L 451.995991 107.865131 
L 452.777614 95.262727 
L 453.559236 93.30155 
L 454.340858 86.904844 
L 455.12248 102.358237 
L 455.904102 92.800376 
L 456.685724 93.996867 
L 457.467346 89.640504 
L 458.248968 94.407284 
L 459.03059 92.555744 
L 459.812212 89.49934 
L 460.593834 100.770619 
L 461.375456 99.476145 
L 462.157078 94.399396 
L 462.9387 103.437414 
L 463.720323 92.807173 
L 464.501945 97.668787 
L 465.283567 101.604421 
L 466.065189 85.593976 
L 466.846811 102.740775 
L 467.628433 95.917641 
L 468.410055 104.9628 
L 469.191677 94.163412 
L 469.973299 106.549126 
L 470.754921 94.042712 
L 471.536543 109.214169 
L 472.318165 92.684466 
L 473.099787 100.511947 
L 473.88141 90.334919 
L 474.663032 109.286786 
L 475.444654 98.520303 
L 476.226276 91.621903 
L 477.007898 109.545351 
L 477.78952 94.15555 
L 478.571142 93.579917 
L 479.352764 83.159341 
L 480.134386 96.656241 
L 480.916008 93.818743 
L 481.69763 100.21856 
L 482.479252 81.164799 
L 483.260874 92.778247 
L 484.042497 92.967526 
L 484.824119 96.150333 
L 485.605741 90.899814 
L 486.387363 92.09393 
L 487.168985 92.100934 
L 487.950607 100.387616 
L 488.732229 84.369965 
L 489.513851 99.269929 
L 490.295473 95.715199 
L 491.077095 95.886605 
L 491.858717 101.047176 
L 492.640339 93.833148 
L 493.421961 99.411902 
L 494.203584 95.996698 
L 494.985206 102.310176 
L 495.766828 92.863121 
L 496.54845 105.126512 
L 497.330072 95.627415 
L 498.111694 103.498915 
L 498.893316 96.480986 
L 499.674938 94.051496 
L 500.45656 91.090069 
L 501.238182 107.948578 
L 502.019804 97.252668 
L 502.801426 104.828005 
L 503.583048 94.525971 
L 504.364671 101.799023 
L 505.146293 100.524607 
L 505.927915 99.695213 
L 506.709537 95.787225 
L 507.491159 98.041612 
L 508.272781 91.67351 
L 509.054403 104.482691 
L 509.836025 92.889454 
L 510.617647 94.272706 
L 511.399269 99.913301 
L 512.180891 82.316112 
L 512.962513 96.110358 
L 513.744135 99.539913 
L 514.525758 88.318123 
L 515.30738 99.791695 
L 516.089002 93.301857 
L 516.870624 108.408028 
L 517.652246 82.053751 
L 518.433868 107.330598 
L 519.21549 88.214606 
L 519.997112 99.41208 
L 520.778734 95.145684 
L 521.560356 98.388674 
L 522.341978 83.018348 
L 523.1236 98.545432 
L 523.905222 89.505892 
L 524.686844 103.11878 
L 525.468467 89.982909 
L 526.250089 96.722332 
L 527.031711 99.604793 
L 527.813333 99.569227 
L 528.594955 87.450982 
L 529.376577 99.142799 
L 530.158199 94.955519 
L 530.939821 92.941635 
L 531.721443 86.46294 
L 532.503065 103.524312 
L 533.284687 90.469857 
L 534.066309 103.886592 
L 534.847931 87.264651 
L 535.629554 107.925551 
L 536.411176 87.290162 
L 537.192798 110.780623 
L 537.97442 90.291922 
L 538.756042 99.936828 
L 539.537664 102.263286 
L 540.319286 90.338451 
L 541.100908 106.440461 
L 541.88253 90.627521 
L 542.664152 109.478923 
L 543.445774 88.758638 
L 544.227396 104.393639 
L 545.009018 90.802107 
L 545.790641 95.345235 
L 546.572263 105.570536 
L 547.353885 93.269114 
L 548.135507 96.383882 
L 548.917129 102.689613 
L 549.698751 91.537671 
L 550.480373 105.483248 
L 551.261995 84.830645 
L 552.043617 101.266636 
L 552.825239 85.78495 
L 553.606861 98.439816 
L 554.388483 94.500776 
L 555.170105 94.666257 
L 555.951728 94.330466 
L 556.73335 84.635617 
L 557.514972 102.358201 
L 558.296594 93.232261 
L 559.078216 98.8632 
L 559.859838 83.030656 
L 560.64146 108.086979 
L 561.423082 87.058656 
L 562.204704 107.115105 
L 562.986326 88.288005 
L 563.767948 101.435741 
L 564.54957 90.475516 
L 565.331192 90.534772 
L 566.112815 95.649817 
L 566.894437 94.649171 
L 567.676059 85.819592 
L 568.457681 99.68102 
L 569.239303 82.366263 
L 570.020925 98.637085 
L 570.802547 84.053666 
L 571.584169 101.735924 
L 572.365791 91.772492 
L 573.147413 100.117382 
L 573.929035 84.954203 
L 574.710657 106.437626 
L 575.492279 83.922754 
L 576.273902 108.401632 
L 577.055524 93.91311 
L 577.837146 90.562333 
L 578.618768 103.276145 
L 579.40039 92.01097 
L 580.182012 105.127648 
L 580.182012 105.127648 
" clip-path="url(#p2a750cc493)" style="fill: none; stroke: #1f77b4; stroke-linecap: square"/>
   </g>
   <g id="line2d_37">
    <path d="M 349.603499 95.735107 
L 350.385122 107.213529 
L 351.166744 88.807021 
L 351.948366 107.466989 
L 352.729988 90.096207 
L 353.51161 103.742704 
L 354.293232 94.418513 
L 355.074854 104.805414 
L 355.856476 99.07136 
L 356.638098 99.537877 
L 357.41972 96.966641 
L 358.201342 89.597371 
L 358.982964 104.400042 
L 359.764586 96.361225 
L 360.546209 109.029604 
L 361.327831 87.630482 
L 362.109453 109.936727 
L 362.891075 89.636475 
L 363.672697 102.065531 
L 364.454319 91.739295 
L 365.235941 107.119234 
L 366.017563 92.62601 
L 366.799185 111.239666 
L 367.580807 88.993277 
L 368.362429 102.292245 
L 369.144051 92.230539 
L 369.925673 99.847948 
L 370.707296 85.405632 
L 371.488918 99.240769 
L 372.27054 85.745012 
L 373.052162 98.992963 
L 373.833784 94.967521 
L 374.615406 89.463993 
L 375.397028 89.652882 
L 376.17865 97.820852 
L 376.960272 87.700385 
L 377.741894 107.034611 
L 378.523516 94.312756 
L 379.305138 96.647099 
L 380.08676 101.918461 
L 381.650005 98.106007 
L 382.431627 96.917144 
L 383.213249 101.373657 
L 383.994871 98.870711 
L 384.776493 91.519206 
L 385.558115 105.864397 
L 386.339737 86.372119 
L 387.121359 108.004976 
L 387.902981 82.137901 
L 388.684603 109.670547 
L 389.466225 89.397589 
L 390.247847 97.526014 
L 391.02947 93.759159 
L 391.811092 95.430584 
L 392.592714 94.112979 
L 393.374336 94.859772 
L 394.155958 91.981589 
L 394.93758 91.33669 
L 395.719202 98.311155 
L 396.500824 81.416407 
L 397.282446 100.546123 
L 398.064068 93.618356 
L 398.84569 105.735634 
L 399.627312 89.819965 
L 400.408934 89.401152 
L 401.190556 108.408062 
L 401.972179 90.322386 
L 402.753801 107.587764 
L 403.535423 91.477605 
L 404.317045 100.355716 
L 405.098667 89.875826 
L 405.880289 92.653926 
L 406.661911 98.275507 
L 407.443533 86.567957 
L 408.225155 108.255468 
L 409.006777 87.335738 
L 409.788399 95.977945 
L 410.570021 93.471972 
L 411.351643 101.126468 
L 412.133266 96.423981 
L 412.914888 101.615192 
L 413.69651 92.130045 
L 414.478132 102.351191 
L 415.259754 100.41119 
L 416.041376 94.437719 
L 416.822998 101.556333 
L 417.60462 94.569381 
L 418.386242 108.096775 
L 419.167864 89.295342 
L 419.949486 103.139937 
L 420.731108 96.064045 
L 421.51273 100.747977 
L 422.294353 110.037179 
L 423.075975 91.45732 
L 423.857597 101.874237 
L 424.639219 107.239853 
L 426.202463 96.834635 
L 426.984085 102.457637 
L 427.765707 98.548445 
L 428.547329 96.048528 
L 429.328951 98.215178 
L 430.110573 102.960287 
L 430.892195 98.251533 
L 431.673817 99.472409 
L 432.45544 109.366786 
L 433.237062 95.606147 
L 434.018684 100.74481 
L 435.581928 93.920604 
L 436.36355 101.47287 
L 437.145172 97.952391 
L 437.926794 92.488979 
L 438.708416 100.340704 
L 439.490038 96.60617 
L 440.27166 92.163234 
L 441.053282 91.175939 
L 441.834904 101.275365 
L 442.616527 90.341723 
L 443.398149 104.894575 
L 444.179771 88.657901 
L 444.961393 103.325123 
L 445.743015 95.690174 
L 446.524637 101.264298 
L 447.306259 92.57811 
L 448.869503 101.786012 
L 449.651125 84.944872 
L 450.432747 104.348144 
L 451.214369 86.893798 
L 451.995991 97.211386 
L 452.777614 81.552615 
L 453.559236 109.739482 
L 454.340858 88.81214 
L 455.12248 109.196277 
L 455.904102 91.353976 
L 456.685724 90.9644 
L 457.467346 105.476034 
L 458.248968 95.243487 
L 459.03059 101.301577 
L 459.812212 88.790813 
L 460.593834 107.224063 
L 461.375456 90.00899 
L 462.157078 105.195977 
L 462.9387 85.457524 
L 463.720323 99.568488 
L 464.501945 92.763796 
L 465.283567 103.381324 
L 466.065189 82.063224 
L 466.846811 97.906046 
L 467.628433 87.167672 
L 468.410055 98.613529 
L 469.191677 91.079431 
L 469.973299 103.882032 
L 470.754921 87.298817 
L 471.536543 106.496096 
L 472.318165 88.614608 
L 473.099787 103.704066 
L 473.88141 88.883868 
L 474.663032 101.097677 
L 475.444654 93.81656 
L 476.226276 90.814064 
L 477.007898 89.443687 
L 478.571142 96.219342 
L 479.352764 103.633654 
L 480.134386 98.491678 
L 480.916008 102.33934 
L 482.479252 92.608565 
L 483.260874 108.550586 
L 484.042497 92.10022 
L 484.824119 86.217988 
L 485.605741 111.739536 
L 486.387363 93.196251 
L 487.168985 100.334786 
L 487.950607 92.037494 
L 488.732229 111.467412 
L 489.513851 82.259893 
L 490.295473 97.726152 
L 491.077095 94.020607 
L 491.858717 95.551405 
L 492.640339 87.955869 
L 493.421961 97.440728 
L 494.985206 94.60672 
L 495.766828 87.668822 
L 496.54845 94.292645 
L 497.330072 96.210683 
L 498.111694 84.753287 
L 498.893316 80.238006 
L 499.674938 93.180178 
L 500.45656 86.163329 
L 501.238182 94.506061 
L 502.019804 92.7385 
L 502.801426 90.62217 
L 503.583048 92.471306 
L 504.364671 56.226371 
L 505.146293 77.793577 
L 505.927915 94.271021 
L 506.709537 95.271584 
L 507.491159 96.534766 
L 508.272781 84.084392 
L 509.054403 99.555177 
L 509.836025 84.847458 
L 510.617647 98.329929 
L 511.399269 87.99951 
L 512.180891 101.166407 
L 512.962513 88.098922 
L 513.744135 94.859992 
L 514.525758 88.746618 
L 515.30738 95.928094 
L 516.089002 91.428382 
L 516.870624 92.527472 
L 517.652246 85.341307 
L 518.433868 97.375408 
L 519.21549 87.845027 
L 519.997112 99.054407 
L 520.778734 84.254069 
L 521.560356 101.640122 
L 522.341978 99.936864 
L 523.1236 94.743665 
L 523.905222 99.821537 
L 524.686844 95.342276 
L 525.468467 98.349263 
L 526.250089 95.523634 
L 527.031711 93.61493 
L 527.813333 95.777131 
L 528.594955 94.750286 
L 529.376577 84.264995 
L 530.158199 107.72689 
L 530.939821 89.67695 
L 531.721443 90.394353 
L 532.503065 100.392944 
L 533.284687 81.802348 
L 534.066309 99.307657 
L 534.847931 83.2407 
L 535.629554 101.211687 
L 536.411176 92.63457 
L 537.192798 90.5137 
L 537.97442 94.635798 
L 538.756042 94.141222 
L 539.537664 98.211002 
L 540.319286 82.32695 
L 541.100908 101.719457 
L 541.88253 95.685843 
L 542.664152 94.137106 
L 543.445774 85.681179 
L 544.227396 101.135439 
L 545.009018 83.914668 
L 545.790641 104.763928 
L 546.572263 85.76945 
L 547.353885 100.794635 
L 548.135507 83.588379 
L 548.917129 106.962567 
L 549.698751 89.176079 
L 550.480373 102.319651 
L 551.261995 84.126766 
L 552.043617 103.309259 
L 552.825239 90.06812 
L 553.606861 104.5959 
L 554.388483 85.653925 
L 555.170105 103.9782 
L 555.951728 93.879276 
L 556.73335 95.727927 
L 557.514972 98.840376 
L 558.296594 92.300507 
L 559.078216 101.906952 
L 559.859838 91.66652 
L 560.64146 104.430924 
L 561.423082 94.020812 
L 562.204704 89.628278 
L 562.986326 100.793553 
L 563.767948 91.54402 
L 564.54957 99.433876 
L 565.331192 94.109876 
L 566.112815 105.012948 
L 566.894437 91.892431 
L 567.676059 107.22124 
L 568.457681 93.913194 
L 569.239303 107.660567 
L 570.020925 93.10311 
L 570.802547 96.869672 
L 571.584169 106.51838 
L 572.365791 93.799221 
L 573.147413 97.702404 
L 573.929035 92.991412 
L 574.710657 109.189527 
L 575.492279 95.624581 
L 576.273902 107.581915 
L 577.055524 94.881283 
L 577.837146 104.348163 
L 578.618768 92.642668 
L 579.40039 103.265631 
L 580.182012 94.118738 
L 580.182012 94.118738 
" clip-path="url(#p2a750cc493)" style="fill: none; stroke: #ff7f0e; stroke-linecap: square"/>
   </g>
   <g id="line2d_38">
    <path d="M 349.603499 103.461888 
L 350.385122 88.780677 
L 351.166744 102.870814 
L 351.948366 91.644566 
L 352.729988 105.783878 
L 353.51161 91.108385 
L 354.293232 106.207659 
L 355.074854 88.266245 
L 355.856476 106.488567 
L 356.638098 90.244427 
L 357.41972 98.71863 
L 358.201342 96.00265 
L 358.982964 98.665519 
L 359.764586 110.326334 
L 360.546209 88.034954 
L 361.327831 108.450837 
L 362.109453 93.798146 
L 362.891075 90.997093 
L 363.672697 96.681836 
L 364.454319 83.977197 
L 365.235941 102.084813 
L 366.017563 94.480872 
L 366.799185 90.803284 
L 367.580807 104.691554 
L 368.362429 90.008812 
L 369.144051 106.816892 
L 369.925673 87.116404 
L 370.707296 101.82144 
L 371.488918 89.148503 
L 372.27054 98.407095 
L 373.052162 83.08583 
L 373.833784 98.765882 
L 374.615406 90.951047 
L 375.397028 96.657836 
L 376.17865 92.72991 
L 376.960272 102.441782 
L 377.741894 102.605524 
L 378.523516 90.096053 
L 379.305138 103.016438 
L 380.08676 90.815509 
L 380.868383 110.172474 
L 381.650005 97.395461 
L 382.431627 90.263523 
L 383.213249 108.863118 
L 383.994871 89.270235 
L 384.776493 98.268622 
L 385.558115 86.416257 
L 386.339737 98.237166 
L 387.121359 85.372017 
L 387.902981 97.181658 
L 388.684603 87.02708 
L 389.466225 15.454923 
L 390.247847 83.120395 
L 391.02947 96.038553 
L 391.811092 95.487517 
L 392.592714 90.911387 
L 393.374336 102.422402 
L 394.155958 87.258934 
L 394.93758 92.603813 
L 395.719202 92.984129 
L 396.500824 94.988416 
L 397.282446 89.317178 
L 398.064068 90.182088 
L 398.84569 83.698205 
L 399.627312 96.894621 
L 400.408934 82.579638 
L 401.190556 103.182298 
L 401.972179 97.37317 
L 402.753801 86.792392 
L 403.535423 102.81982 
L 404.317045 83.146761 
L 405.098667 98.053045 
L 405.880289 84.635493 
L 406.661911 92.355466 
L 407.443533 94.025291 
L 408.225155 93.204076 
L 409.006777 93.819409 
L 409.788399 89.570754 
L 410.570021 83.097865 
L 411.351643 93.567671 
L 412.133266 93.52932 
L 412.914888 91.239105 
L 413.69651 95.81151 
L 414.478132 85.015979 
L 415.259754 93.270392 
L 416.041376 94.181322 
L 416.822998 95.524496 
L 417.60462 94.209309 
L 418.386242 93.52527 
L 419.167864 90.811172 
L 419.949486 89.725175 
L 420.731108 91.523438 
L 421.51273 89.551888 
L 422.294353 93.225508 
L 423.075975 89.488257 
L 423.857597 84.813374 
L 424.639219 92.767416 
L 425.420841 94.805431 
L 426.202463 93.83145 
L 426.984085 81.985462 
L 427.765707 89.760635 
L 428.547329 69.829301 
L 429.328951 95.119583 
L 430.110573 95.34625 
L 430.892195 93.320928 
L 431.673817 83.817775 
L 432.45544 81.83977 
L 433.237062 92.912387 
L 434.018684 91.997452 
L 434.800306 92.420468 
L 435.581928 82.724141 
L 436.36355 101.139622 
L 437.145172 86.455188 
L 437.926794 89.423003 
L 438.708416 99.489666 
L 439.490038 85.759006 
L 440.27166 98.624137 
L 441.053282 86.316242 
L 441.834904 102.569728 
L 442.616527 89.164328 
L 443.398149 91.968027 
L 444.179771 94.190934 
L 444.961393 95.285887 
L 445.743015 93.540992 
L 446.524637 94.651722 
L 447.306259 91.669761 
L 448.087881 103.818622 
L 448.869503 91.392642 
L 449.651125 100.121086 
L 450.432747 96.254247 
L 451.214369 81.428963 
L 451.995991 100.819219 
L 452.777614 94.884075 
L 453.559236 106.949818 
L 454.340858 93.493668 
L 455.12248 99.472353 
L 455.904102 92.15923 
L 456.685724 105.289241 
L 457.467346 93.887889 
L 458.248968 103.079564 
L 459.03059 93.969508 
L 459.812212 99.200207 
L 460.593834 99.354465 
L 461.375456 90.908078 
L 462.157078 91.873573 
L 462.9387 101.716714 
L 463.720323 82.740994 
L 464.501945 98.672489 
L 465.283567 84.371704 
L 466.065189 98.864046 
L 466.846811 82.674226 
L 467.628433 105.942147 
L 468.410055 86.204808 
L 469.191677 98.252378 
L 469.973299 88.890858 
L 470.754921 95.778777 
L 471.536543 89.628315 
L 472.318165 96.519797 
L 473.099787 86.2532 
L 473.88141 99.387896 
L 474.663032 84.88811 
L 475.444654 97.6178 
L 476.226276 93.769834 
L 477.007898 99.906856 
L 477.78952 86.61711 
L 478.571142 108.335536 
L 479.352764 90.405608 
L 480.134386 96.551267 
L 480.916008 88.548062 
L 481.69763 98.430961 
L 482.479252 101.361601 
L 483.260874 98.095087 
L 484.042497 103.802795 
L 484.824119 89.530952 
L 485.605741 106.471337 
L 486.387363 89.903644 
L 487.168985 105.046598 
L 487.950607 92.427273 
L 488.732229 109.176762 
L 489.513851 87.659843 
L 490.295473 101.895332 
L 491.077095 98.655327 
L 491.858717 89.968493 
L 492.640339 104.497825 
L 493.421961 97.580525 
L 494.985206 98.693012 
L 495.766828 96.687251 
L 496.54845 100.848475 
L 497.330072 101.713986 
L 498.111694 96.547951 
L 498.893316 109.239423 
L 499.674938 108.106562 
L 500.45656 90.214503 
L 501.238182 108.443947 
L 502.019804 89.195523 
L 502.801426 100.245444 
L 503.583048 100.566461 
L 504.364671 102.079295 
L 505.146293 96.316625 
L 505.927915 103.157396 
L 506.709537 105.207799 
L 507.491159 88.739129 
L 508.272781 104.953835 
L 509.054403 92.425208 
L 509.836025 110.583262 
L 510.617647 93.549156 
L 511.399269 101.678082 
L 512.180891 92.035725 
L 512.962513 103.611248 
L 513.744135 89.504454 
L 514.525758 104.73967 
L 515.30738 92.398723 
L 516.089002 97.123584 
L 516.870624 98.207934 
L 517.652246 91.816534 
L 518.433868 105.496805 
L 519.21549 90.388913 
L 519.997112 103.48775 
L 520.778734 84.469849 
L 521.560356 96.479097 
L 522.341978 86.652677 
L 523.1236 96.742256 
L 523.905222 92.55173 
L 524.686844 101.785668 
L 525.468467 88.740782 
L 526.250089 99.353096 
L 527.031711 88.630213 
L 527.813333 96.596568 
L 528.594955 90.777248 
L 529.376577 89.160521 
L 530.158199 105.909764 
L 530.939821 92.323715 
L 531.721443 109.176521 
L 532.503065 85.557641 
L 533.284687 107.676479 
L 534.066309 84.481077 
L 534.847931 104.994204 
L 535.629554 96.101832 
L 536.411176 104.272261 
L 537.192798 89.443751 
L 537.97442 107.262351 
L 538.756042 91.766807 
L 539.537664 98.33622 
L 540.319286 96.163485 
L 541.100908 90.765283 
L 541.88253 106.66526 
L 542.664152 91.906328 
L 543.445774 105.151344 
L 544.227396 84.818047 
L 545.009018 108.618134 
L 545.790641 93.505042 
L 546.572263 105.298977 
L 547.353885 94.487095 
L 548.135507 99.692676 
L 548.917129 94.383771 
L 549.698751 101.002304 
L 550.480373 89.796042 
L 551.261995 98.853408 
L 552.043617 95.656602 
L 552.825239 107.775393 
L 553.606861 86.46993 
L 554.388483 106.413487 
L 555.170105 91.986714 
L 555.951728 95.934854 
L 556.73335 95.185008 
L 557.514972 100.37272 
L 558.296594 90.947092 
L 559.078216 93.218001 
L 559.859838 96.316525 
L 560.64146 96.971116 
L 561.423082 87.97239 
L 562.204704 108.481756 
L 562.986326 92.10832 
L 563.767948 107.935813 
L 564.54957 89.748398 
L 565.331192 97.212286 
L 566.112815 84.928529 
L 566.894437 105.687149 
L 567.676059 86.694823 
L 568.457681 109.576827 
L 569.239303 90.441587 
L 570.020925 104.186374 
L 570.802547 90.568813 
L 571.584169 105.122818 
L 572.365791 89.24482 
L 573.147413 91.275087 
L 573.929035 106.155441 
L 574.710657 86.133572 
L 575.492279 98.412591 
L 576.273902 82.072073 
L 577.055524 93.709203 
L 577.837146 90.325043 
L 578.618768 93.282085 
L 579.40039 95.678802 
L 580.182012 93.840855 
L 580.182012 93.840855 
" clip-path="url(#p2a750cc493)" style="fill: none; stroke: #2ca02c; stroke-linecap: square"/>
   </g>
   <g id="patch_9">
    <path d="M 338.074574 174.214923 
L 338.074574 7.894923 
" style="fill: none; stroke: #000000; stroke-width: 0.8; stroke-linejoin: miter; stroke-linecap: square"/>
   </g>
   <g id="patch_10">
    <path d="M 591.710937 174.214923 
L 591.710937 7.894923 
" style="fill: none; stroke: #000000; stroke-width: 0.8; stroke-linejoin: miter; stroke-linecap: square"/>
   </g>
   <g id="patch_11">
    <path d="M 338.074574 174.214923 
L 591.710937 174.214923 
" style="fill: none; stroke: #000000; stroke-width: 0.8; stroke-linejoin: miter; stroke-linecap: square"/>
   </g>
   <g id="patch_12">
    <path d="M 338.074574 7.894923 
L 591.710937 7.894923 
" style="fill: none; stroke: #000000; stroke-width: 0.8; stroke-linejoin: miter; stroke-linecap: square"/>
   </g>
   <g id="legend_2">
    <g id="patch_13">
     <path d="M 540.210937 59.929298 
L 584.710937 59.929298 
Q 586.710937 59.929298 586.710937 57.929298 
L 586.710937 14.894923 
Q 586.710937 12.894923 584.710937 12.894923 
L 540.210937 12.894923 
Q 538.210937 12.894923 538.210937 14.894923 
L 538.210937 57.929298 
Q 538.210937 59.929298 540.210937 59.929298 
z
" style="fill: #ffffff; opacity: 0.8; stroke: #cccccc; stroke-linejoin: miter"/>
    </g>
    <g id="line2d_39">
     <path d="M 542.210937 20.993361 
L 552.210937 20.993361 
L 562.210937 20.993361 
" style="fill: none; stroke: #1f77b4; stroke-linecap: square"/>
    </g>
    <g id="text_33">
     <!-- $D_a$ -->
     <g transform="translate(570.210937 24.493361)">
      <text>
       <tspan style="font: oblique 10px 'DejaVu Sans'" x="0" y="-0.703125">D</tspan>
       <tspan style="font: oblique 7px 'DejaVu Sans'" x="7.700195" y="0.9375">a</tspan>
      </text>
     </g>
    </g>
    <g id="line2d_40">
     <path d="M 542.210937 35.671486 
L 552.210937 35.671486 
L 562.210937 35.671486 
" style="fill: none; stroke: #ff7f0e; stroke-linecap: square"/>
    </g>
    <g id="text_34">
     <!-- $D_b$ -->
     <g transform="translate(570.210937 39.171486)">
      <text>
       <tspan style="font: oblique 10px 'DejaVu Sans'" x="0" y="-0.703125">D</tspan>
       <tspan style="font: oblique 7px 'DejaVu Sans'" x="7.700195" y="0.9375">b</tspan>
      </text>
     </g>
    </g>
    <g id="line2d_41">
     <path d="M 542.210937 50.349611 
L 552.210937 50.349611 
L 562.210937 50.349611 
" style="fill: none; stroke: #2ca02c; stroke-linecap: square"/>
    </g>
    <g id="text_35">
     <!-- $D_c$ -->
     <g transform="translate(570.210937 53.849611)">
      <text>
       <tspan style="font: oblique 10px 'DejaVu Sans'" x="0" y="-0.703125">D</tspan>
       <tspan style="font: oblique 7px 'DejaVu Sans'" x="7.700195" y="0.9375">c</tspan>
      </text>
     </g>
    </g>
   </g>
  </g>
 </g>
 <defs>
  <clipPath id="p23fbd772e9">
   <rect x="33.710938" y="7.894923" width="253.636364" height="166.32"/>
  </clipPath>
  <clipPath id="p2a750cc493">
   <rect x="338.074574" y="7.894923" width="253.636364" height="166.32"/>
  </clipPath>
 </defs>
</svg>
